<svg width="16" height="16" viewBox="0 0 16 16" fill="none" xmlns="http://www.w3.org/2000/svg">
<path fill-rule="evenodd" clip-rule="evenodd" d="M5.33333 5.33335C5.33333 4.96516 5.03486 4.66669 4.66667 4.66669C4.29848 4.66669 4 4.96516 4 5.33335C4 7.1743 5.49238 8.66669 7.33333 8.66669H9.44718C9.72175 9.44347 10.4626 10 11.3334 10C12.4379 10 13.3334 9.10457 13.3334 8C13.3334 6.89543 12.4379 6 11.3334 6C10.4626 6 9.72172 6.55655 9.44717 7.33335H7.33333C6.22876 7.33335 5.33333 6.43792 5.33333 5.33335ZM10.6667 8C10.6667 7.63181 10.9652 7.33333 11.3334 7.33333C11.7016 7.33333 12 7.63181 12 8C12 8.36819 11.7016 8.66667 11.3334 8.66667C10.9652 8.66667 10.6667 8.36819 10.6667 8Z" fill="#1C55AE"/>
<path fill-rule="evenodd" clip-rule="evenodd" d="M4.66663 3.33333C4.29844 3.33333 3.99996 3.63181 3.99996 4C3.99996 4.36819 4.29844 4.66667 4.66663 4.66667C5.03482 4.66667 5.33329 4.36819 5.33329 4C5.33329 3.63181 5.03482 3.33333 4.66663 3.33333ZM2.66663 4C2.66663 2.89543 3.56206 2 4.66663 2C5.7712 2 6.66663 2.89543 6.66663 4C6.66663 4.8708 6.11011 5.61161 5.33333 5.88618V10.1138C6.11011 10.3884 6.66663 11.1292 6.66663 12C6.66663 13.1046 5.77119 14 4.66663 14C3.56206 14 2.66663 13.1046 2.66663 12C2.66663 11.1292 3.22318 10.3883 4 10.1138V5.88621C3.22318 5.61166 2.66663 4.87083 2.66663 4ZM4.66278 11.3333C4.29636 11.3354 3.99996 11.6331 3.99996 12C3.99996 12.3682 4.29844 12.6667 4.66663 12.6667C5.03482 12.6667 5.33329 12.3682 5.33329 12C5.33329 11.6318 5.03482 11.3333 4.66663 11.3333C4.66534 11.3333 4.66406 11.3333 4.66278 11.3333Z" fill="#555657"/>
<path fill-rule="evenodd" clip-rule="evenodd" d="M11.7273 9.72727C11.7273 9.32561 11.4016 9 11 9C10.5983 9 10.2727 9.32561 10.2727 9.72727V11.2727H8.72727C8.32561 11.2727 8 11.5983 8 12C8 12.4016 8.32561 12.7273 8.72727 12.7273H10.2727V14.2727C10.2727 14.6744 10.5983 15 11 15C11.4016 15 11.7273 14.6744 11.7273 14.2727V12.7273H13.2727C13.6744 12.7273 14 12.4016 14 12C14 11.5983 13.6744 11.2727 13.2727 11.2727H11.7273V9.72727Z" fill="#009646"/>
</svg>
