<svg width="16" height="16" viewBox="0 0 16 16" fill="none" xmlns="http://www.w3.org/2000/svg">
<path d="M1 2C1 1.44772 1.44772 1 2 1H14C14.5523 1 15 1.44772 15 2V14C15 14.5523 14.5523 15 14 15H2C1.44772 15 1 14.5523 1 14V2Z" fill="#E5DDEF"/>
<path fill-rule="evenodd" clip-rule="evenodd" d="M14 2H2V14H14V2ZM2 1C1.44772 1 1 1.44772 1 2V14C1 14.5523 1.44772 15 2 15H14C14.5523 15 15 14.5523 15 14V2C15 1.44772 14.5523 1 14 1H2ZM8 4.5C7.17157 4.5 6.5 5.17157 6.5 6C6.5 6.82843 7.17157 7.5 8 7.5C8.82843 7.5 9.5 6.82843 9.5 6C9.5 5.17157 8.82843 4.5 8 4.5ZM5.5 6C5.5 4.61929 6.61929 3.5 8 3.5C9.38071 3.5 10.5 4.61929 10.5 6C10.5 7.38071 9.38071 8.5 8 8.5C6.61929 8.5 5.5 7.38071 5.5 6ZM11 11C11 10.4477 10.5523 10 10 10H6C5.44772 10 5 10.4477 5 11V12H4V11C4 9.89543 4.89543 9 6 9H10C11.1046 9 12 9.89543 12 11V12H11V11Z" fill="#333333"/>
</svg>
