<svg width="16" height="16" viewBox="0 0 16 16" fill="none" xmlns="http://www.w3.org/2000/svg">
<path d="M15 8C15 11.866 11.866 15 8 15C4.13401 15 1 11.866 1 8C1 4.13401 4.13401 1 8 1C11.866 1 15 4.13401 15 8Z" fill="#FA8F78"/>
<path fill-rule="evenodd" clip-rule="evenodd" d="M8 14C11.3137 14 14 11.3137 14 8C14 4.68629 11.3137 2 8 2C4.68629 2 2 4.68629 2 8C2 11.3137 4.68629 14 8 14ZM8 15C11.866 15 15 11.866 15 8C15 4.13401 11.866 1 8 1C4.13401 1 1 4.13401 1 8C1 11.866 4.13401 15 8 15ZM9.2 6.23068V6C9.2 5.33726 8.66274 4.8 8 4.8C7.33726 4.8 6.8 5.33726 6.8 6V10C6.8 10.6627 7.33726 11.2 8 11.2C8.52249 11.2 8.96698 10.8661 9.13172 10.4H9.95999C9.77468 11.3129 8.96758 12 8 12C6.89543 12 6 11.1046 6 10V6C6 4.89543 6.89543 4 8 4C9.10457 4 10 4.89543 10 6V8C10 9.10457 9.32843 10 8.5 10C7.67157 10 7 9.10457 7 8C7 6.89543 7.67157 6 8.5 6C8.75282 6 8.99103 6.0834 9.2 6.23068ZM9 8C9 8.35684 8.89027 8.6414 8.76066 8.81421C8.63128 8.98672 8.52889 9 8.5 9C8.47111 9 8.36872 8.98672 8.23934 8.81421C8.10973 8.6414 8 8.35684 8 8C8 7.64316 8.10973 7.3586 8.23934 7.18579C8.36872 7.01328 8.47111 7 8.5 7C8.52889 7 8.63128 7.01328 8.76066 7.18579C8.89027 7.3586 9 7.64316 9 8Z" fill="#444444"/>
</svg>
