<svg width="16" height="16" viewBox="0 0 16 16" fill="none" xmlns="http://www.w3.org/2000/svg">
<path fill-rule="evenodd" clip-rule="evenodd" d="M3.96424 11.1857L5.96424 6.18572L5.03577 5.81433L3.03577 10.8143L3.96424 11.1857ZM12.9642 10.8143L10.9642 5.81433L10.0358 6.18572L12.0358 11.1857L12.9642 10.8143Z" fill="#484848"/>
<path fill-rule="evenodd" clip-rule="evenodd" d="M2.51807 10.2772C1.67966 10.2772 1 10.9568 1 11.7952V13.482C1 14.3204 1.67966 15.0001 2.51807 15.0001H5.0482C5.8866 15.0001 6.56627 14.3204 6.56627 13.482V11.7952C6.56627 10.9568 5.8866 10.2772 5.0482 10.2772H2.51807ZM2.3494 11.7952C2.3494 11.7021 2.42492 11.6266 2.51807 11.6266H5.0482C5.14135 11.6266 5.21687 11.7021 5.21687 11.7952V13.482C5.21687 13.5751 5.14135 13.6507 5.0482 13.6507H2.51807C2.42492 13.6507 2.3494 13.5751 2.3494 13.482V11.7952ZM10.9518 10.2772C10.1134 10.2772 9.43372 10.9568 9.43372 11.7952V13.482C9.43372 14.3204 10.1134 15.0001 10.9518 15.0001H13.4819C14.3203 15.0001 15 14.3204 15 13.482V11.7952C15 10.9568 14.3203 10.2772 13.4819 10.2772H10.9518ZM10.7831 11.7952C10.7831 11.7021 10.8586 11.6266 10.9518 11.6266H13.4819C13.5751 11.6266 13.6506 11.7021 13.6506 11.7952V13.482C13.6506 13.5751 13.5751 13.6507 13.4819 13.6507H10.9518C10.8586 13.6507 10.7831 13.5751 10.7831 13.482V11.7952Z" fill="#1C55AE"/>
<path fill-rule="evenodd" clip-rule="evenodd" d="M7.70929 1.4186C7.89228 1.3271 8.10767 1.3271 8.29066 1.4186L13.2907 3.9186C13.5109 4.0287 13.65 4.25377 13.65 4.49998C13.65 4.74618 13.5109 4.97125 13.2907 5.08135L8.29066 7.58135C8.10767 7.67285 7.89228 7.67285 7.70929 7.58135L2.70929 5.08135C2.48908 4.97125 2.34998 4.74618 2.34998 4.49998C2.34998 4.25377 2.48908 4.0287 2.70929 3.9186L7.70929 1.4186ZM4.45342 4.49998L7.99998 6.27325L11.5465 4.49998L7.99998 2.7267L4.45342 4.49998Z" fill="#009646"/>
</svg>
