<svg width="16" height="16" viewBox="0 0 16 16" fill="none" xmlns="http://www.w3.org/2000/svg">
<path fill-rule="evenodd" clip-rule="evenodd" d="M6.19533 0.86202C6.32033 0.736987 6.48987 0.666725 6.66667 0.666687H12C12.5304 0.666687 13.0391 0.877401 13.4142 1.25247C13.7893 1.62755 14 2.13625 14 2.66669V13.3334C14 13.8638 13.7893 14.3725 13.4142 14.7476C13.0391 15.1226 12.5304 15.3334 12 15.3334H4C3.46957 15.3334 2.96086 15.1226 2.58579 14.7476C2.21071 14.3725 2 13.8638 2 13.3334V5.33335C2.00004 5.15656 2.0703 4.98702 2.19533 4.86202L6.19533 0.86202V0.86202ZM12 2.00002H7.33333V5.33335C7.33333 5.51016 7.2631 5.67973 7.13807 5.80476C7.01305 5.92978 6.84348 6.00002 6.66667 6.00002H3.33333V13.3334C3.33333 13.5102 3.40357 13.6797 3.5286 13.8048C3.65362 13.9298 3.82319 14 4 14H12C12.1768 14 12.3464 13.9298 12.4714 13.8048C12.5964 13.6797 12.6667 13.5102 12.6667 13.3334V2.66669C12.6667 2.48988 12.5964 2.32031 12.4714 2.19528C12.3464 2.07026 12.1768 2.00002 12 2.00002V2.00002ZM4.276 4.66669H6V2.94269L4.276 4.66669ZM4.66667 8.66669C4.66667 8.48988 4.7369 8.32031 4.86193 8.19528C4.98695 8.07026 5.15652 8.00002 5.33333 8.00002H10.6667C10.8435 8.00002 11.013 8.07026 11.1381 8.19528C11.2631 8.32031 11.3333 8.48988 11.3333 8.66669C11.3333 8.8435 11.2631 9.01307 11.1381 9.13809C11.013 9.26312 10.8435 9.33335 10.6667 9.33335H5.33333C5.15652 9.33335 4.98695 9.26312 4.86193 9.13809C4.7369 9.01307 4.66667 8.8435 4.66667 8.66669ZM4.66667 11.3334C4.66667 11.1565 4.7369 10.987 4.86193 10.8619C4.98695 10.7369 5.15652 10.6667 5.33333 10.6667H10.6667C10.8435 10.6667 11.013 10.7369 11.1381 10.8619C11.2631 10.987 11.3333 11.1565 11.3333 11.3334C11.3333 11.5102 11.2631 11.6797 11.1381 11.8048C11.013 11.9298 10.8435 12 10.6667 12H5.33333C5.15652 12 4.98695 11.9298 4.86193 11.8048C4.7369 11.6797 4.66667 11.5102 4.66667 11.3334Z" fill="#1C55AE"/>
</svg>
