<svg width="16" height="16" viewBox="0 0 16 16" fill="none" xmlns="http://www.w3.org/2000/svg">
<path fill-rule="evenodd" clip-rule="evenodd" d="M5.91464 13.1501C5.62848 14.2156 4.65584 15 3.5 15C2.11929 15 1 13.8807 1 12.5C1 11.1193 2.11929 10 3.5 10C4.65591 10 5.6286 10.7845 5.91469 11.8501H13C13.359 11.8501 13.65 12.1411 13.65 12.5001C13.65 12.8591 13.359 13.1501 13 13.1501H5.91464ZM2.32498 12.5C2.32498 13.1489 2.85105 13.675 3.5 13.675C4.14895 13.675 4.67502 13.1489 4.67502 12.5C4.67502 11.8511 4.14895 11.325 3.5 11.325C2.85105 11.325 2.32498 11.8511 2.32498 12.5Z" fill="#1C55AE"/>
<path d="M11 2L9.5 3.5L12 6.5L14 4.5L11 2Z" fill="#FEB9FF"/>
<path d="M8 10.5L5 7.5L9.5 4L12 6.5L8 10.5Z" fill="#73C676"/>
<path fill-rule="evenodd" clip-rule="evenodd" d="M7.49334 11.6705H4.66668C4.48987 11.6705 4.3203 11.6003 4.19527 11.4753C4.07025 11.3502 4.00001 11.1807 4.00001 11.0039V8.1772C3.9995 8.08946 4.01632 8.00249 4.0495 7.92126C4.08267 7.84004 4.13156 7.76616 4.19334 7.70387L8.82001 3.08387L10.7 1.1972C10.762 1.13471 10.8357 1.08512 10.917 1.05127C10.9982 1.01743 11.0853 1 11.1733 1C11.2614 1 11.3485 1.01743 11.4297 1.05127C11.511 1.08512 11.5847 1.13471 11.6467 1.1972L14.4733 4.0572C14.5358 4.11917 14.5854 4.19291 14.6193 4.27415C14.6531 4.35539 14.6705 4.44252 14.6705 4.53053C14.6705 4.61854 14.6531 4.70568 14.6193 4.78692C14.5854 4.86816 14.5358 4.94189 14.4733 5.00387L12.58 6.8572L7.96668 11.4772C7.90438 11.539 7.83051 11.5879 7.74928 11.621C7.66806 11.6542 7.58108 11.671 7.49334 11.6705ZM13.06 4.4972L11.1733 2.61053L10.2267 3.5572L12.1133 5.44387L13.06 4.4972ZM9.28668 4.4972L5.33334 8.45053V10.3372H7.22001L11.1733 6.38387L9.28668 4.4972Z" fill="#555657"/>
</svg>
