<svg width="16" height="16" viewBox="0 0 16 16" fill="none" xmlns="http://www.w3.org/2000/svg">
<path d="M1 2C1 1.44772 1.44772 1 2 1H12C12.5523 1 13 1.44772 13 2V12C13 12.5523 12.5523 13 12 13H2C1.44772 13 1 12.5523 1 12V2Z" fill="#E5DDEF"/>
<path fill-rule="evenodd" clip-rule="evenodd" d="M12 2H2L2 12H12V2ZM2 1C1.44772 1 1 1.44772 1 2V12C1 12.5523 1.44772 13 2 13H12C12.5523 13 13 12.5523 13 12V2C13 1.44772 12.5523 1 12 1H2Z" fill="#333333"/>
<path d="M3 4C3 3.44772 3.44772 3 4 3H14C14.5523 3 15 3.44772 15 4V14C15 14.5523 14.5523 15 14 15H4C3.44772 15 3 14.5523 3 14V4Z" fill="#E5DDEF"/>
<path fill-rule="evenodd" clip-rule="evenodd" d="M14 4H4L4 14H14V4ZM4 3C3.44772 3 3 3.44772 3 4V14C3 14.5523 3.44772 15 4 15H14C14.5523 15 15 14.5523 15 14V4C15 3.44772 14.5523 3 14 3H4Z" fill="#333333"/>
</svg>
