<svg width="16" height="16" viewBox="0 0 16 16" fill="none" xmlns="http://www.w3.org/2000/svg">
<path fill-rule="evenodd" clip-rule="evenodd" d="M1.59998 5V15H2.39998V13.4838C2.44327 13.4944 2.4887 13.5 2.53553 13.5L11.1441 13.5L10.4366 14.1413C10.2244 14.3336 10.2194 14.6502 10.4254 14.8483C10.6314 15.0464 10.9705 15.0511 11.1827 14.8587L12.8375 13.3587C12.8428 13.3539 12.848 13.349 12.8531 13.344C12.9442 13.2544 13 13.1333 13 13C13 12.8648 12.9414 12.7354 12.8375 12.6413L12.837 12.6408L11.1827 11.1413C10.9705 10.9489 10.6314 10.9536 10.4254 11.1517C10.2194 11.3498 10.2244 11.6664 10.4366 11.8587L11.1441 12.5L2.53553 12.5C2.4887 12.5 2.44327 12.5056 2.39998 12.5162V5H1.59998ZM13.6 5V8.51614C13.5567 8.50561 13.5113 8.5 13.4645 8.5L4.85594 8.5L5.56338 7.85874C5.77558 7.66639 5.7806 7.34984 5.57458 7.15171C5.36855 6.95359 5.02951 6.9489 4.81731 7.14126L3.16249 8.64126C3.07455 8.72097 3.01905 8.82596 3.00409 8.93831C3.00138 8.95867 3 8.97927 3 9C3 9.02073 3.00138 9.04133 3.00409 9.06169C3.01498 9.14433 3.04747 9.22074 3.09613 9.28583C3.11556 9.31187 3.13774 9.33631 3.16249 9.35874L4.81731 10.8587C5.02951 11.0511 5.36855 11.0464 5.57458 10.8483C5.7806 10.6502 5.77558 10.3336 5.56338 10.1413L4.85593 9.5L13.4645 9.5C13.5113 9.5 13.5567 9.49439 13.6 9.48386V15H14.4V5H13.6Z" fill="#555657"/>
<path fill-rule="evenodd" clip-rule="evenodd" d="M2.3 4.7V2.3H5.7V4.7H2.3ZM1 2.25C1 1.55964 1.44772 1 2 1H6C6.55228 1 7 1.55964 7 2.25V4.75C7 5.44036 6.55228 6 6 6H2C1.44772 6 1 5.44036 1 4.75V2.25ZM10.3 4.7V2.3H13.7V4.7H10.3ZM9 2.25C9 1.55964 9.44772 1 10 1H14C14.5523 1 15 1.55964 15 2.25V4.75C15 5.44036 14.5523 6 14 6H10C9.44772 6 9 5.44036 9 4.75V2.25Z" fill="#1C55AE"/>
</svg>
