<svg width="16" height="16" viewBox="0 0 16 16" fill="none" xmlns="http://www.w3.org/2000/svg">
<path fill-rule="evenodd" clip-rule="evenodd" d="M8.5 1C8.5 0.723858 8.27614 0.5 8 0.5C7.72386 0.5 7.5 0.723858 7.5 1V2.2918L7.35223 2.14513C7.15624 1.9506 6.83966 1.95178 6.64513 2.14777C6.4506 2.34376 6.45178 2.66034 6.64777 2.85487L7.64777 3.84743C7.84273 4.04093 8.15727 4.04093 8.35223 3.84743L9.35223 2.85487C9.54822 2.66034 9.5494 2.34376 9.35487 2.14777C9.16034 1.95178 8.84376 1.9506 8.64777 2.14513L8.5 2.2918V1ZM15 4H12H4H1V5H3.5V6.5C3.5 6.77614 3.72386 7 4 7C4.27614 7 4.5 6.77614 4.5 6.5V5H11.5V6.5C11.5 6.77614 11.7239 7 12 7C12.2761 7 12.5 6.77614 12.5 6.5V5H15V4ZM4.5 9.5C4.5 9.22386 4.27614 9 4 9C3.72386 9 3.5 9.22386 3.5 9.5V11H1V12H4H7.5V13.2918L7.35223 13.1451C7.15624 12.9506 6.83966 12.9518 6.64513 13.1478C6.4506 13.3438 6.45178 13.6603 6.64777 13.8549L7.64777 14.8474C7.84273 15.0409 8.15727 15.0409 8.35223 14.8474L9.35223 13.8549C9.54822 13.6603 9.5494 13.3438 9.35487 13.1478C9.16034 12.9518 8.84376 12.9506 8.64777 13.1451L8.5 13.2918V12H12H15V11H12.5V9.5C12.5 9.22386 12.2761 9 12 9C11.7239 9 11.5 9.22386 11.5 9.5V11H4.5V9.5Z" fill="black"/>
<path fill-rule="evenodd" clip-rule="evenodd" d="M2.2 8.8V7.2H5.8V8.8H2.2ZM1 7C1 6.44772 1.44772 6 2 6H6C6.55228 6 7 6.44772 7 7V9C7 9.55228 6.55228 10 6 10H2C1.44772 10 1 9.55228 1 9V7ZM10.2 8.8V7.2H13.8V8.8H10.2ZM9 7C9 6.44772 9.44772 6 10 6H14C14.5523 6 15 6.44772 15 7V9C15 9.55228 14.5523 10 14 10H10C9.44772 10 9 9.55228 9 9V7Z" fill="#1C55AE"/>
</svg>
