<svg width="16" height="16" viewBox="0 0 16 16" fill="none" xmlns="http://www.w3.org/2000/svg">
<path d="M15 8C15 11.866 11.866 15 8 15C4.13401 15 1 11.866 1 8C1 4.13401 4.13401 1 8 1C11.866 1 15 4.13401 15 8Z" fill="#AFEAB7"/>
<path fill-rule="evenodd" clip-rule="evenodd" d="M14 8C14 11.3137 11.3137 14 8 14C4.68629 14 2 11.3137 2 8C2 4.68629 4.68629 2 8 2C11.3137 2 14 4.68629 14 8ZM15 8C15 11.866 11.866 15 8 15C4.13401 15 1 11.866 1 8C1 4.13401 4.13401 1 8 1C11.866 1 15 4.13401 15 8ZM6.45631 10.6217C6.92788 10.8739 7.49099 11 8.14563 11C8.71429 11 9.20666 10.9054 9.62275 10.7163C10.0388 10.5271 10.3648 10.2648 10.6006 9.92938C10.8391 9.59142 10.9723 9.2005 11 8.75662H9.32732C9.29404 8.96091 9.2233 9.13619 9.11512 9.28247C9.00971 9.42623 8.87517 9.53594 8.71151 9.6116C8.55062 9.68726 8.36893 9.72509 8.16644 9.72509C7.89182 9.72509 7.65187 9.657 7.4466 9.52081C7.24133 9.38461 7.08183 9.18663 6.9681 8.92686C6.85714 8.66709 6.80166 8.35183 6.80166 7.98108C6.80166 7.61538 6.85853 7.30391 6.97226 7.04666C7.08599 6.78941 7.24411 6.59395 7.4466 6.46028C7.65187 6.32409 7.89182 6.25599 8.16644 6.25599C8.49099 6.25599 8.75312 6.34552 8.95284 6.52459C9.15534 6.70113 9.28017 6.93443 9.32732 7.22446H11C10.975 6.77554 10.8405 6.38461 10.5964 6.0517C10.3523 5.71879 10.0208 5.46028 9.60194 5.27617C9.18308 5.09206 8.69487 5 8.13731 5C7.49099 5 6.93343 5.12736 6.46463 5.38209C5.99584 5.6343 5.63384 5.98613 5.37864 6.43758C5.12621 6.88651 5 7.40857 5 8.00378C5 8.59142 5.12483 9.11097 5.37448 9.56242C5.62691 10.0139 5.98752 10.367 6.45631 10.6217Z" fill="#444444"/>
</svg>
