<svg width="16" height="16" viewBox="0 0 16 16" fill="none" xmlns="http://www.w3.org/2000/svg">
<g clip-path="url(#clip0_160_2200)">
<path fill-rule="evenodd" clip-rule="evenodd" d="M8.52539 1.0896C8.52539 0.813457 8.30153 0.5896 8.02539 0.5896C7.74925 0.5896 7.52539 0.813457 7.52539 1.0896V3.0264L6.90003 2.19258C6.73434 1.97167 6.42094 1.9269 6.20003 2.09258C5.97912 2.25827 5.93434 2.57167 6.10003 2.79258L7.60003 4.79258C7.69446 4.91849 7.84265 4.99258 8.00003 4.99258C8.15741 4.99258 8.3056 4.91849 8.40003 4.79258L9.90003 2.79258C10.0657 2.57167 10.0209 2.25827 9.80003 2.09258C9.57911 1.9269 9.26571 1.97167 9.10003 2.19258L8.52539 2.95877V1.0896ZM11.7 10.1C11.9209 9.93434 12.2343 9.97912 12.4 10.2L13 11V8.5H11.5C11.2239 8.5 11 8.27614 11 8C11 7.72386 11.2239 7.5 11.5 7.5H13.5C13.7761 7.5 14 7.72386 14 8V11.0001L14.6 10.2C14.7657 9.97912 15.0791 9.93434 15.3 10.1C15.5209 10.2657 15.5657 10.5791 15.4 10.8L13.9 12.8C13.8056 12.9259 13.6574 13 13.5 13C13.3427 13 13.1945 12.9259 13.1 12.8L11.6 10.8C11.4343 10.5791 11.4791 10.2657 11.7 10.1ZM8.4978 11C8.4978 10.7239 8.27395 10.5 7.9978 10.5C7.72166 10.5 7.4978 10.7239 7.4978 11V13.04L6.90003 12.243C6.73434 12.0221 6.42094 11.9773 6.20003 12.143C5.97912 12.3087 5.93434 12.6221 6.10003 12.843L7.60003 14.843C7.69446 14.9689 7.84265 15.043 8.00003 15.043C8.15741 15.043 8.3056 14.9689 8.40003 14.843L9.90003 12.843C10.0657 12.6221 10.0209 12.3087 9.80003 12.143C9.57911 11.9773 9.26571 12.0221 9.10003 12.243L8.4978 13.046V11ZM0.700029 10.1C0.920943 9.93434 1.23434 9.97912 1.40003 10.2L2 11V8C2 7.72386 2.22386 7.5 2.5 7.5H4.5C4.77614 7.5 5 7.72386 5 8C5 8.27614 4.77614 8.5 4.5 8.5H3V11.0001L3.60003 10.2C3.76571 9.97912 4.07912 9.93434 4.30003 10.1C4.52094 10.2657 4.56571 10.5791 4.40003 10.8L2.90003 12.8C2.8056 12.9259 2.65741 13 2.50003 13C2.34265 13 2.19446 12.9259 2.10003 12.8L0.600029 10.8C0.434344 10.5791 0.479116 10.2657 0.700029 10.1Z" fill="black"/>
<path fill-rule="evenodd" clip-rule="evenodd" d="M5.50021 5.27295C5.60491 5.10043 5.76343 5 5.93103 5H10.069C10.2366 5 10.3951 5.10043 10.4998 5.27295L11.8791 7.54568C12.0403 7.81129 12.0403 8.18871 11.8791 8.45432L10.4998 10.7271C10.3951 10.8996 10.2366 11 10.069 11H5.93103C5.76343 11 5.60491 10.8996 5.50021 10.7271L4.1209 8.45432C3.9597 8.18871 3.9597 7.81129 4.1209 7.54568L5.50021 5.27295ZM6.19621 6.45455L5.25828 8L6.19621 9.54545H9.80379L10.7417 8L9.80379 6.45455H6.19621Z" fill="#1C55AE"/>
</g>
<defs>
<clipPath id="clip0_160_2200">
<rect width="16" height="16" fill="white"/>
</clipPath>
</defs>
</svg>
