<svg width="16" height="16" viewBox="0 0 16 16" fill="none" xmlns="http://www.w3.org/2000/svg">
<path fill-rule="evenodd" clip-rule="evenodd" d="M5.53577 5.81433L3.53577 10.8143L4.46424 11.1857L6.46424 6.18572L5.53577 5.81433ZM10.4642 5.81433L12.4642 10.8143L11.5358 11.1857L9.53576 6.18572L10.4642 5.81433Z" fill="#555657"/>
<path fill-rule="evenodd" clip-rule="evenodd" d="M5 3.60714C5 2.71954 5.73263 2 6.63636 2H9.36364C10.2674 2 11 2.71954 11 3.60714V5.39286C11 6.28046 10.2674 7 9.36364 7H6.63636C5.73263 7 5 6.28046 5 5.39286V3.60714ZM6.63636 3.42857C6.53595 3.42857 6.45455 3.50852 6.45455 3.60714V5.39286C6.45455 5.49148 6.53595 5.57143 6.63636 5.57143H9.36364C9.46405 5.57143 9.54545 5.49148 9.54545 5.39286V3.60714C9.54545 3.50852 9.46405 3.42857 9.36364 3.42857H6.63636ZM1 11.6071C1 10.7195 1.73262 10 2.63636 10H5.36364C6.26737 10 7 10.7195 7 11.6071V13.3929C7 14.2805 6.26737 15 5.36364 15H2.63636C1.73262 15 1 14.2805 1 13.3929V11.6071ZM2.63636 11.4286C2.53595 11.4286 2.45455 11.5085 2.45455 11.6071V13.3929C2.45455 13.4915 2.53595 13.5714 2.63636 13.5714H5.36364C5.46405 13.5714 5.54545 13.4915 5.54545 13.3929V11.6071C5.54545 11.5085 5.46405 11.4286 5.36364 11.4286H2.63636ZM10.6364 10C9.73263 10 9 10.7195 9 11.6071V13.3929C9 14.2805 9.73263 15 10.6364 15H13.3636C14.2674 15 15 14.2805 15 13.3929V11.6071C15 10.7195 14.2674 10 13.3636 10H10.6364ZM10.4545 11.6071C10.4545 11.5085 10.5359 11.4286 10.6364 11.4286H13.3636C13.4641 11.4286 13.5455 11.5085 13.5455 11.6071V13.3929C13.5455 13.4915 13.4641 13.5714 13.3636 13.5714H10.6364C10.5359 13.5714 10.4545 13.4915 10.4545 13.3929V11.6071Z" fill="#1C55AE"/>
</svg>
