<svg width="16" height="16" viewBox="0 0 16 16" fill="none" xmlns="http://www.w3.org/2000/svg">
<path fill-rule="evenodd" clip-rule="evenodd" d="M11.3333 9.98057C10.6154 9.98057 9.99996 10.568 9.99996 11.3333C9.99996 12.0986 10.6154 12.6861 11.3333 12.6861C12.0512 12.6861 12.6666 12.0986 12.6666 11.3333C12.6666 10.568 12.0512 9.98057 11.3333 9.98057ZM8.66663 11.3333C8.66663 9.88948 9.84208 8.6861 11.3333 8.6861C12.8245 8.6861 14 9.88948 14 11.3333C14 12.7772 12.8245 13.9806 11.3333 13.9806C9.84208 13.9806 8.66663 12.7772 8.66663 11.3333Z" fill="#1C55AE"/>
<path fill-rule="evenodd" clip-rule="evenodd" d="M8.58292 1.68603C8.4654 1.48037 8.24221 1.35278 7.99996 1.35278C7.75771 1.35278 7.53452 1.48037 7.41699 1.68603L4.75033 6.3527C4.63577 6.55317 4.639 6.79753 4.75881 6.99508C4.87863 7.19264 5.09715 7.31392 5.33329 7.31392H10.6666C10.9028 7.31392 11.1213 7.19264 11.2411 6.99508C11.3609 6.79753 11.3641 6.55317 11.2496 6.3527L8.58292 1.68603ZM7.99996 3.3342L9.53439 6.01945H6.46553L7.99996 3.3342ZM3.33333 8.6861C2.59695 8.6861 2 9.26565 2 9.98057V12.6861C2 13.401 2.59695 13.9806 3.33333 13.9806H6C6.73638 13.9806 7.33333 13.401 7.33333 12.6861V9.98057C7.33333 9.26565 6.73638 8.6861 6 8.6861H3.33333ZM3.33333 9.98057L6 9.98057V12.6861H3.33333V9.98057Z" fill="#555657"/>
</svg>
