<svg width="16" height="16" viewBox="0 0 16 16" fill="none" xmlns="http://www.w3.org/2000/svg">
<path fill-rule="evenodd" clip-rule="evenodd" d="M11.7952 2.16293C11.6754 2.06203 11.5127 2 11.3334 2C11.1527 2 10.9889 2.06296 10.8688 2.1652C10.8657 2.16787 10.8625 2.17057 10.8595 2.1733M10.8545 2.17778L8.85503 3.98253C8.59856 4.21403 8.6048 4.58389 8.86897 4.80864C9.13314 5.03339 9.55521 5.02792 9.81168 4.79642L10.6667 4.02467V13.4158C10.6667 13.7384 10.9652 14 11.3334 14C11.7015 14 12 13.7384 12 13.4158V4.02467L12.855 4.79642C13.1115 5.02792 13.5336 5.03339 13.7977 4.80864C14.0619 4.58389 14.0681 4.21403 13.8117 3.98253L11.8119 2.1775L11.8117 2.17727C11.8063 2.1724 11.8008 2.16762 11.7952 2.16293M3.14499 11.2036C2.88852 10.9721 2.46646 10.9667 2.20228 11.1914C1.93811 11.4162 1.93187 11.786 2.18834 12.0175L4.18834 13.8228C4.21826 13.8498 4.25084 13.874 4.28556 13.8952C4.37235 13.9483 4.47422 13.9837 4.58441 13.9956C4.61156 13.9986 4.63902 14.0001 4.66667 14.0001C4.69431 14.0001 4.72178 13.9986 4.74892 13.9956C4.89873 13.9793 5.0387 13.9187 5.14499 13.8228L7.14499 12.0175C7.40146 11.786 7.39522 11.4162 7.13105 11.1914C6.86688 10.9667 6.44481 10.9721 6.18834 11.2036L5.33333 11.9754V2.58421C5.33333 2.26156 5.03486 2 4.66667 2C4.29848 2 4 2.26156 4 2.58421V11.9754L3.14499 11.2036Z" fill="#1C55AE"/>
</svg>
