<svg width="16" height="16" viewBox="0 0 16 16" fill="none" xmlns="http://www.w3.org/2000/svg">
<path d="M15 8C15 11.866 11.866 15 8 15C4.13401 15 1 11.866 1 8C1 4.13401 4.13401 1 8 1C11.866 1 15 4.13401 15 8Z" fill="#AFEAB7"/>
<path fill-rule="evenodd" clip-rule="evenodd" d="M13.1973 11C13.7078 10.1175 14 9.09286 14 8C14 4.68629 11.3137 2 8 2C4.68629 2 2 4.68629 2 8C2 11.3137 4.68629 14 8 14C8.70127 14 9.37444 13.8797 10 13.6586V14.7101C9.36629 14.8987 8.69497 15 8 15C4.13401 15 1 11.866 1 8C1 4.13401 4.13401 1 8 1C11.866 1 15 4.13401 15 8C15 9.0736 14.7583 10.0907 14.3264 11H13.1973ZM8.14563 11C7.49099 11 6.92788 10.8739 6.45631 10.6217C5.98752 10.367 5.62691 10.0139 5.37448 9.56242C5.12483 9.11097 5 8.59142 5 8.00378C5 7.40857 5.12621 6.88651 5.37864 6.43758C5.63384 5.98613 5.99584 5.6343 6.46463 5.38209C6.93343 5.12736 7.49099 5 8.13731 5C8.69487 5 9.18308 5.09206 9.60194 5.27617C10.0208 5.46028 10.3523 5.71879 10.5964 6.0517C10.8405 6.38461 10.975 6.77554 11 7.22446H9.32732C9.28017 6.93443 9.15534 6.70113 8.95284 6.52459C8.75312 6.34552 8.49099 6.25599 8.16644 6.25599C7.89182 6.25599 7.65187 6.32409 7.4466 6.46028C7.24411 6.59395 7.08599 6.78941 6.97226 7.04666C6.85853 7.30391 6.80166 7.61538 6.80166 7.98108C6.80166 8.35183 6.85714 8.66709 6.9681 8.92686C7.08183 9.18663 7.24133 9.38461 7.4466 9.52081C7.65187 9.657 7.89182 9.72509 8.16644 9.72509C8.36893 9.72509 8.55062 9.68726 8.71151 9.6116C8.87517 9.53594 9.00971 9.42623 9.11512 9.28247C9.2233 9.13619 9.29404 8.96091 9.32732 8.75662H11C10.9723 9.2005 10.8391 9.59142 10.6006 9.92938C10.3648 10.2648 10.0388 10.5271 9.62275 10.7163C9.20666 10.9054 8.71429 11 8.14563 11Z" fill="#444444"/>
<path fill-rule="evenodd" clip-rule="evenodd" d="M12.7273 10.3418C12.7273 9.94017 12.4016 9.61456 12 9.61456C11.5983 9.61456 11.2727 9.94017 11.2727 10.3418V11.8873H9.72727C9.32561 11.8873 9 12.2129 9 12.6145C9 13.0162 9.32561 13.3418 9.72727 13.3418H11.2727V14.8873C11.2727 15.289 11.5983 15.6146 12 15.6146C12.4016 15.6146 12.7273 15.289 12.7273 14.8873V13.3418H14.2727C14.6744 13.3418 15 13.0162 15 12.6145C15 12.2129 14.6744 11.8873 14.2727 11.8873H12.7273V10.3418Z" fill="#009646"/>
</svg>
