<svg width="16" height="16" viewBox="0 0 16 16" fill="none" xmlns="http://www.w3.org/2000/svg">
<path d="M11 4C11 5.65685 9.65685 7 8 7C6.34315 7 5 5.65685 5 4C5 2.34315 6.34315 1 8 1C9.65685 1 11 2.34315 11 4Z" fill="#E5DDEF"/>
<path fill-rule="evenodd" clip-rule="evenodd" d="M8 6C9.10457 6 10 5.10457 10 4C10 2.89543 9.10457 2 8 2C6.89543 2 6 2.89543 6 4C6 5.10457 6.89543 6 8 6ZM11 4C11 5.4865 9.91886 6.72048 8.50001 6.95852V8H12V9H8.50001V10.8398L10.9069 14.2094L10.0931 14.7906L8.00001 11.8602L5.90687 14.7906L5.09314 14.2094L7.50001 10.8398V9H4V8H7.50001V6.95852C6.08115 6.72049 5 5.4865 5 4C5 2.34315 6.34315 1 8 1C9.65685 1 11 2.34315 11 4Z" fill="#333333"/>
</svg>
