<svg width="16" height="16" viewBox="0 0 16 16" fill="none" xmlns="http://www.w3.org/2000/svg">
<path d="M15 8C15 10.7614 12.7614 13 10 13C7.23858 13 5 10.7614 5 8C5 5.23858 7.23858 3 10 3C12.7614 3 15 5.23858 15 8Z" fill="#E5DDEF"/>
<path fill-rule="evenodd" clip-rule="evenodd" d="M1 3H2V7.5H5.02469C5.27555 4.97334 7.40733 3 10 3C12.7614 3 15 5.23858 15 8C15 10.7614 12.7614 13 10 13C7.40733 13 5.27555 11.0267 5.02469 8.5H2V13H1V3ZM6 8C6 10.2091 7.79086 12 10 12C12.2091 12 14 10.2091 14 8C14 5.79086 12.2091 4 10 4C7.79086 4 6 5.79086 6 8Z" fill="#333333"/>
</svg>
