<svg width="16" height="16" viewBox="0 0 16 16" fill="none" xmlns="http://www.w3.org/2000/svg">
<path d="M15 8C15 11.866 11.866 15 8 15C4.13401 15 1 11.866 1 8C1 4.13401 4.13401 1 8 1C11.866 1 15 4.13401 15 8Z" fill="#E9E9E9"/>
<path fill-rule="evenodd" clip-rule="evenodd" d="M14 8C14 11.3137 11.3137 14 8 14C4.68629 14 2 11.3137 2 8C2 4.68629 4.68629 2 8 2C11.3137 2 14 4.68629 14 8ZM15 8C15 11.866 11.866 15 8 15C4.13401 15 1 11.866 1 8C1 4.13401 4.13401 1 8 1C11.866 1 15 4.13401 15 8ZM8.61997 5H6V11H7.40402V9.05469H8.58431C9.09447 9.05469 9.52897 8.96973 9.88781 8.7998C10.2488 8.62988 10.5244 8.39258 10.7147 8.08789C10.9049 7.7832 11 7.43164 11 7.0332C11 6.63477 10.906 6.2832 10.7179 5.97852C10.532 5.67188 10.2618 5.43262 9.90726 5.26074C9.55274 5.08691 9.12365 5 8.61997 5ZM7.40402 8.03809H8.35733C8.62754 8.03809 8.85019 7.99609 9.02529 7.91211C9.20255 7.82617 9.33441 7.70801 9.42088 7.55762C9.50951 7.40527 9.55383 7.23047 9.55383 7.0332C9.55383 6.83398 9.50951 6.66016 9.42088 6.51172C9.33441 6.36133 9.20255 6.24512 9.02529 6.16309C8.84803 6.0791 8.62322 6.03711 8.35084 6.03711H7.40402V8.03809Z" fill="#444444"/>
</svg>
