<svg width="16" height="16" viewBox="0 0 16 16" fill="none" xmlns="http://www.w3.org/2000/svg">
<path d="M14 7C14 10.3137 11.3137 13 8 13C4.68629 13 2 10.3137 2 7C2 3.68629 4.68629 1 8 1C11.3137 1 14 3.68629 14 7Z" fill="#E5DDEF"/>
<path fill-rule="evenodd" clip-rule="evenodd" d="M13 7C13 9.76142 10.7614 12 8 12C5.23858 12 3 9.76142 3 7C3 4.23858 5.23858 2 8 2C10.7614 2 13 4.23858 13 7ZM14 7C14 10.3137 11.3137 13 8 13C4.68629 13 2 10.3137 2 7C2 3.68629 4.68629 1 8 1C11.3137 1 14 3.68629 14 7ZM14 15V14H2V15H14Z" fill="#333333"/>
</svg>
