<svg width="16" height="16" viewBox="0 0 16 16" fill="none" xmlns="http://www.w3.org/2000/svg">
<path d="M3 3V8L4.6 6.21429L13 5.85714L12.6 4.42857L7.4 4.07143L7 3H3Z" fill="#FFE069"/>
<path d="M3.98981 6.66441L3.00861 11.5287C3.00289 11.5571 3 11.5861 3 11.6152C3 11.8277 3.15057 12 3.33631 12H11.7155C12.0883 12 12.4044 11.6863 12.4572 11.2641L12.9923 6.97836C13.0568 6.46199 12.7066 6 12.2506 6H4.71985C4.37097 6 4.06826 6.27549 3.98981 6.66441Z" fill="#FFE069"/>
<path fill-rule="evenodd" clip-rule="evenodd" d="M2.46242 2.48327C2.16634 2.79271 2 3.21239 2 3.65V11.9C2 12.1917 2.11089 12.4715 2.30828 12.6778C2.50567 12.8841 2.77338 13 3.05253 13L10 13V11.9H3.24514C3.27303 11.8497 3.2931 11.7951 3.30461 11.7383L4.2682 6.95H12.9468L12.59 9H13.6605L13.983 7.1469C14.009 6.99741 14.0051 6.84391 13.9715 6.69608C13.938 6.54825 13.8755 6.40929 13.7879 6.28796C13.7004 6.16663 13.5898 6.06557 13.4631 5.99113C13.3363 5.9167 13.1962 5.87052 13.0515 5.8555V4.75C13.0515 4.45826 12.9406 4.17847 12.7433 3.97218C12.5459 3.76589 12.2782 3.65 11.999 3.65H7.64154L7.47577 3.12805C7.37093 2.79946 7.1698 2.51369 6.90089 2.31123C6.63198 2.10876 6.30892 1.99988 5.9775 2H3.57879C3.16007 2 2.7585 2.17384 2.46242 2.48327ZM11.999 4.75V5.85H4.26872C4.02724 5.85001 3.7931 5.93681 3.60558 6.09583C3.41806 6.25486 3.28857 6.47643 3.23882 6.7234L3.05253 7.6485V3.65C3.05253 3.50413 3.10797 3.36424 3.20667 3.26109C3.30536 3.15795 3.43922 3.1 3.57879 3.1H5.9775C6.088 3.09997 6.1957 3.13629 6.28534 3.20382C6.37498 3.27134 6.44201 3.36664 6.47692 3.4762L6.64322 3.9976C6.71303 4.21664 6.84701 4.40717 7.02618 4.54221C7.20535 4.67724 7.42064 4.74994 7.64154 4.75H11.999Z" fill="#B87C33"/>
<path fill-rule="evenodd" clip-rule="evenodd" d="M12.2882 8.57987C12.2882 8.17821 11.9626 7.8526 11.5609 7.8526C11.1592 7.8526 10.8336 8.17821 10.8336 8.57987V10.1253H9.28819C8.88652 10.1253 8.56091 10.4509 8.56091 10.8526C8.56091 11.2542 8.88652 11.5799 9.28819 11.5799H10.8336V13.1253C10.8336 13.527 11.1592 13.8526 11.5609 13.8526C11.9626 13.8526 12.2882 13.527 12.2882 13.1253V11.5799H13.8336C14.2353 11.5799 14.5609 11.2542 14.5609 10.8526C14.5609 10.4509 14.2353 10.1253 13.8336 10.1253H12.2882V8.57987Z" fill="#009646"/>
</svg>
