<svg width="16" height="16" viewBox="0 0 16 16" fill="none" xmlns="http://www.w3.org/2000/svg">
<path d="M14 8C14 11.3137 11.3137 14 8 14C4.68629 14 2 11.3137 2 8C2 4.68629 4.68629 2 8 2C11.3137 2 14 4.68629 14 8Z" fill="#E5DDEF"/>
<path fill-rule="evenodd" clip-rule="evenodd" d="M6.67955 3.17621C4.55885 3.75538 3 5.69564 3 8C3 10.7614 5.23858 13 8 13C10.7614 13 13 10.7614 13 8C13 5.63587 11.3592 3.65496 9.15431 3.1339L10 5.42993L6.67955 3.17621ZM9.21779 2.12366C11.9476 2.68644 14 5.10354 14 8C14 11.3137 11.3137 14 8 14C4.68629 14 2 11.3137 2 8C2 5.05955 4.11521 2.61312 6.90706 2.09931L10 0L9.21779 2.12366Z" fill="#333333"/>
</svg>
