<svg width="16" height="16" viewBox="0 0 16 16" fill="none" xmlns="http://www.w3.org/2000/svg">
<path d="M1.97246 11.1928L1.69567 13.1303C1.5924 13.8532 2.15335 14.5 2.88361 14.5H3.35227C3.45039 14.5 3.54813 14.488 3.64332 14.4642L5.29835 14.0504C5.43179 14.0171 5.5585 13.961 5.67295 13.8847L6.46564 13.3562C6.79948 13.1337 7 12.759 7 12.3578V11.1947C7 11.0658 6.97921 10.9376 6.93842 10.8153L6.6302 9.8906C6.54581 9.63744 6.37945 9.41964 6.15742 9.27161L5.44169 8.79446C5.16038 8.60692 4.81301 8.54675 4.48501 8.62875L3.53544 8.86614C3.19559 8.9511 2.90984 9.18033 2.75317 9.49365L2.08709 10.8258C2.02941 10.9412 1.9907 11.0651 1.97246 11.1928Z" fill="#FCE791"/>
<path fill-rule="evenodd" clip-rule="evenodd" d="M13.9751 0.972962C14.0547 0.972861 14.132 0.986709 14.2041 1.01246C14.2985 1.04596 14.3824 1.09925 14.4516 1.1668C14.5261 1.23921 14.5844 1.32891 14.6199 1.4307C14.6436 1.4983 14.6568 1.57034 14.6579 1.64462C14.6587 1.68469 14.6558 1.72419 14.6497 1.76277C14.0966 5.88423 11.4975 9.40616 7.80251 11.0674C7.81997 11.2104 7.82897 11.356 7.82897 11.5035C7.82897 13.4154 6.31915 15 4.41448 15H1.6829C1.30574 15 1 14.6943 1 14.3171V11.5035C1 9.59163 2.50982 8.00702 4.41448 8.00702C4.55047 8.00702 4.68444 8.0151 4.81599 8.03079C6.42382 4.24191 9.83971 1.55495 13.8633 0.982061C13.8998 0.976021 13.9372 0.972914 13.9751 0.972962ZM4.92635 9.44036C4.94964 9.45207 4.97385 9.46258 4.99892 9.47177C5.04015 9.48689 5.0819 9.49778 5.12369 9.50466C5.67641 9.71729 6.12269 10.1715 6.33277 10.7521C6.33992 10.8041 6.35322 10.856 6.37305 10.907C6.38016 10.9253 6.38797 10.9431 6.39644 10.9604C6.43994 11.1332 6.46317 11.3151 6.46317 11.5035C6.46317 12.6994 5.52704 13.6342 4.41448 13.6342H2.36579V11.5035C2.36579 10.3076 3.30192 9.37281 4.41448 9.37281C4.59053 9.37281 4.76215 9.39622 4.92635 9.44036ZM7.37474 9.76101C7.07401 9.226 6.63874 8.77851 6.11405 8.46945C6.37881 7.86174 6.69591 7.28728 7.05885 6.75125C7.87145 7.24343 8.54922 7.94578 9.02353 8.79154C8.50851 9.16362 7.95721 9.48892 7.37474 9.76101ZM13.13 2.51101C12.6607 4.60906 11.5875 6.48223 10.0884 7.90725C9.5364 7.00007 8.78854 6.23298 7.90126 5.66685C9.28293 4.1103 11.1003 2.99907 13.13 2.51101Z" fill="#555657"/>
</svg>
