<svg width="16" height="16" viewBox="0 0 16 16" fill="none" xmlns="http://www.w3.org/2000/svg">
<path fill-rule="evenodd" clip-rule="evenodd" d="M3.81661 6.75457V5.88601H2.83018V5.51067C2.83018 5.32455 2.87257 5.18186 2.95736 5.0826C3.04422 4.98127 3.19208 4.9306 3.40095 4.9306C3.48987 4.9306 3.57052 4.93887 3.6429 4.95542C3.71528 4.96989 3.77525 4.98437 3.82282 4.99884L4.04616 4.13028C3.97378 4.10547 3.86211 4.07755 3.71114 4.04653C3.56018 4.01551 3.3875 4 3.19311 4C2.91807 4 2.66784 4.05273 2.44243 4.1582C2.21702 4.26367 2.0371 4.42291 1.90268 4.63591C1.77033 4.84891 1.70415 5.11568 1.70415 5.43622V5.88601H1V6.75457H1.70415V10.6507H2.83018V6.75457H3.81661ZM4.97522 8.06056C4.97522 7.28506 5.07759 6.57263 5.28232 5.92328C5.48912 5.27186 5.79621 4.67008 6.20361 4.11792H7.26139C7.10422 4.32265 6.9574 4.57391 6.82091 4.8717C6.68442 5.16743 6.56551 5.4921 6.46418 5.84573C6.36491 6.19729 6.28633 6.56229 6.22843 6.94074C6.17259 7.31918 6.14467 7.69245 6.14467 8.06056C6.14467 8.55067 6.19327 9.04699 6.29047 9.54952C6.38973 10.052 6.52312 10.5173 6.69062 10.9454C6.8602 11.3756 7.05046 11.7271 7.26139 12.0001H6.20361C5.79621 11.4479 5.48912 10.8472 5.28232 10.1978C5.07759 9.54641 4.97522 8.83399 4.97522 8.06056ZM14.741 10.1978C14.9478 9.54641 15.0512 8.83399 15.0512 8.06056C15.0512 7.28506 14.9478 6.57263 14.741 5.92328C14.5363 5.27186 14.2302 4.67008 13.8228 4.11792H12.765C12.976 4.3909 13.1652 4.74246 13.3327 5.1726C13.5023 5.60274 13.6356 6.06908 13.7328 6.5716C13.8321 7.07412 13.8817 7.57044 13.8817 8.06056C13.8817 8.42659 13.8528 8.79883 13.7949 9.17728C13.739 9.55572 13.6605 9.92176 13.5591 10.2754C13.4599 10.629 13.342 10.9537 13.2055 11.2494C13.0711 11.5451 12.9243 11.7954 12.765 12.0001H13.8228C14.2302 11.4479 14.5363 10.8472 14.741 10.1978ZM10.0136 7.64482L9.052 5.88599H7.86083L9.27534 8.26832L7.82361 10.6507H9.01478L10.0136 8.93525L11.0218 10.6507H12.2036L10.7426 8.26832L12.1788 5.88599H10.9907L10.0136 7.64482Z" fill="#333333"/>
</svg>
