<svg width="16" height="16" viewBox="0 0 16 16" fill="none" xmlns="http://www.w3.org/2000/svg">
<path d="M1 2C1 1.44772 1.44772 1 2 1H14C14.5523 1 15 1.44772 15 2V14C15 14.5523 14.5523 15 14 15H2C1.44772 15 1 14.5523 1 14V2Z" fill="#E5DDEF"/>
<path fill-rule="evenodd" clip-rule="evenodd" d="M2 2H14V10H15V2C15 1.44772 14.5523 1 14 1H2C1.44772 1 1 1.44772 1 2V14C1 14.5523 1.44772 15 2 15H10V14H2V2ZM11.7324 10H10H6C5.44772 10 5 10.4477 5 11V12H4V11C4 9.89543 4.89543 9 6 9H10C10.7403 9 11.3866 9.4022 11.7324 10ZM6.5 6C6.5 5.17157 7.17157 4.5 8 4.5C8.82843 4.5 9.5 5.17157 9.5 6C9.5 6.82843 8.82843 7.5 8 7.5C7.17157 7.5 6.5 6.82843 6.5 6ZM8 3.5C6.61929 3.5 5.5 4.61929 5.5 6C5.5 7.38071 6.61929 8.5 8 8.5C9.38071 8.5 10.5 7.38071 10.5 6C10.5 4.61929 9.38071 3.5 8 3.5Z" fill="#333333"/>
<path fill-rule="evenodd" clip-rule="evenodd" d="M13.7273 10.7273C13.7273 10.3256 13.4016 10 13 10C12.5983 10 12.2727 10.3256 12.2727 10.7273V12.2727H10.7273C10.3256 12.2727 10 12.5983 10 13C10 13.4016 10.3256 13.7273 10.7273 13.7273H12.2727V15.2727C12.2727 15.6744 12.5983 16 13 16C13.4016 16 13.7273 15.6744 13.7273 15.2727V13.7273H15.2727C15.6744 13.7273 16 13.4016 16 13C16 12.5983 15.6744 12.2727 15.2727 12.2727H13.7273V10.7273Z" fill="#009646"/>
</svg>
