<svg width="16" height="16" viewBox="0 0 16 16" fill="none" xmlns="http://www.w3.org/2000/svg">
<path fill-rule="evenodd" clip-rule="evenodd" d="M11 7C11 6.72386 11.2239 6.5 11.5 6.5H13.5C13.7761 6.5 14 6.72386 14 7V10.0001L14.6 9.20003C14.7657 8.97912 15.0791 8.93434 15.3 9.10003C15.5209 9.26571 15.5657 9.57912 15.4 9.80003L13.9 11.8C13.8056 11.9259 13.6574 12 13.5 12C13.3427 12 13.1945 11.9259 13.1 11.8L11.6 9.80003C11.4343 9.57912 11.4791 9.26571 11.7 9.10003C11.9209 8.93434 12.2343 8.97912 12.4 9.20003L13 9.99999V7.5H11.5C11.2239 7.5 11 7.27614 11 7ZM1.40003 9.20003C1.23434 8.97912 0.920943 8.93434 0.700029 9.10003C0.479116 9.26571 0.434344 9.57912 0.600029 9.80003L2.10003 11.8C2.19446 11.9259 2.34265 12 2.50003 12C2.65741 12 2.8056 11.9259 2.90003 11.8L4.40003 9.80003C4.56571 9.57912 4.52094 9.26571 4.30003 9.10003C4.07912 8.93434 3.76571 8.97912 3.60003 9.20003L3 10.0001V7.5H4.5C4.77614 7.5 5 7.27614 5 7C5 6.72386 4.77614 6.5 4.5 6.5H2.5C2.22386 6.5 2 6.72386 2 7V9.99999L1.40003 9.20003Z" fill="black"/>
<path fill-rule="evenodd" clip-rule="evenodd" d="M5.50021 4.27295C5.60491 4.10043 5.76343 4 5.93103 4H10.069C10.2366 4 10.3951 4.10043 10.4998 4.27295L11.8791 6.54568C12.0403 6.81129 12.0403 7.18871 11.8791 7.45432L10.4998 9.72705C10.3951 9.89957 10.2366 10 10.069 10H5.93103C5.76343 10 5.60491 9.89957 5.50021 9.72705L4.1209 7.45432C3.9597 7.18871 3.9597 6.81129 4.1209 6.54568L5.50021 4.27295ZM6.19621 5.45455L5.25828 7L6.19621 8.54545H9.80379L10.7417 7L9.80379 5.45455H6.19621Z" fill="#1C55AE"/>
</svg>
