<svg width="16" height="16" viewBox="0 0 16 16" fill="none" xmlns="http://www.w3.org/2000/svg">
<path d="M15 8C15 11.866 11.866 15 8 15C4.13401 15 1 11.866 1 8C1 4.13401 4.13401 1 8 1C11.866 1 15 4.13401 15 8Z" fill="#E9E9E9"/>
<path fill-rule="evenodd" clip-rule="evenodd" d="M14 8C14 11.3137 11.3137 14 8 14C4.68629 14 2 11.3137 2 8C2 4.68629 4.68629 2 8 2C11.3137 2 14 4.68629 14 8ZM15 8C15 11.866 11.866 15 8 15C4.13401 15 1 11.866 1 8C1 4.13401 4.13401 1 8 1C11.866 1 15 4.13401 15 8ZM8.90421 5.9266C9.112 6.07514 9.22959 6.28353 9.25699 6.55178H10.6784C10.6715 6.14608 10.5597 5.78915 10.3427 5.481C10.1258 5.17284 9.82213 4.9323 9.43167 4.75938C9.0435 4.58646 8.58911 4.5 8.0685 4.5C7.55703 4.5 7.10035 4.58646 6.69848 4.75938C6.29661 4.9323 5.98036 5.17284 5.74974 5.481C5.5214 5.78915 5.40838 6.14941 5.41066 6.56176C5.40838 7.065 5.57849 7.46516 5.92099 7.76223C6.2635 8.0593 6.73045 8.27767 7.32184 8.41734L8.08563 8.60356C8.34136 8.66342 8.55714 8.72993 8.73296 8.80309C8.91106 8.87625 9.04578 8.96492 9.13712 9.06912C9.23074 9.17332 9.27754 9.3019 9.27754 9.45487C9.27754 9.61892 9.22617 9.76413 9.12342 9.8905C9.02067 10.0169 8.87567 10.1155 8.68844 10.1865C8.50348 10.2574 8.28542 10.2929 8.03425 10.2929C7.77851 10.2929 7.54903 10.2552 7.34581 10.1798C7.14488 10.1022 6.9839 9.98804 6.86288 9.83729C6.74415 9.68432 6.67679 9.49367 6.6608 9.26532H5.22571C5.23712 9.75527 5.35928 10.1665 5.59219 10.4991C5.82738 10.8294 6.1539 11.0788 6.57175 11.2473C6.99189 11.4158 7.4851 11.5 8.05138 11.5C8.62222 11.5 9.10972 11.4169 9.51387 11.2506C9.92031 11.0821 10.2309 10.846 10.4455 10.5423C10.6624 10.2363 10.772 9.87498 10.7743 9.45819C10.772 9.17443 10.7183 8.9228 10.6133 8.70333C10.5106 8.48385 10.3656 8.29319 10.1783 8.13135C9.9911 7.96952 9.76961 7.83318 9.51387 7.72233C9.25814 7.61148 8.97728 7.5228 8.67131 7.4563L8.0411 7.30998C7.88811 7.27672 7.74426 7.23682 7.60954 7.19026C7.47483 7.14149 7.35609 7.08496 7.25334 7.02067C7.15059 6.95416 7.06953 6.87546 7.01016 6.78456C6.95308 6.69367 6.92682 6.58725 6.93138 6.46532C6.93138 6.319 6.97477 6.1882 7.06154 6.07292C7.15059 5.95764 7.27846 5.86785 7.44514 5.80356C7.61183 5.73705 7.81619 5.7038 8.05823 5.7038C8.41443 5.7038 8.69643 5.77807 8.90421 5.9266Z" fill="#444444"/>
</svg>
