<svg width="16" height="16" viewBox="0 0 16 16" fill="none" xmlns="http://www.w3.org/2000/svg">
<path fill-rule="evenodd" clip-rule="evenodd" d="M5.22215 3.84265C6.0444 3.29324 7.0111 3 8 3C8.65661 3 9.30679 3.12933 9.91342 3.3806C10.52 3.63188 11.0712 4.00017 11.5355 4.46447C11.9998 4.92876 12.3681 5.47995 12.6194 6.08658C12.8707 6.69321 13 7.34339 13 8C13 8.9889 12.7068 9.9556 12.1573 10.7778C11.6079 11.6001 10.827 12.241 9.91342 12.6194C8.99979 12.9978 7.99445 13.0969 7.02455 12.9039C6.05465 12.711 5.16373 12.2348 4.46447 11.5355C3.76521 10.8363 3.289 9.94535 3.09608 8.97545C2.90315 8.00555 3.00217 7.00021 3.3806 6.08658C3.75904 5.17295 4.39991 4.39206 5.22215 3.84265ZM5.77772 11.3259C6.43552 11.7654 7.20888 12 8 12C8.87697 12 9.72425 11.712 10.4154 11.1884L8.00003 8.77304L5.58464 11.1884C5.64751 11.236 5.71189 11.2819 5.77772 11.3259ZM4.81163 10.4154L7.22702 8.00003L4.8116 5.58461C4.44758 6.06513 4.19539 6.62375 4.07686 7.21964C3.92252 7.99556 4.00173 8.79983 4.30448 9.53073C4.4358 9.84776 4.60661 10.1448 4.81163 10.4154ZM5.39506 11.0355L7.99999 8.43057L8.00001 8.43058L5.39507 11.0355C5.39507 11.0355 5.39506 11.0355 5.39506 11.0355ZM5.58461 4.8116C6.06513 4.44758 6.62375 4.19539 7.21964 4.07686C7.99556 3.92252 8.79983 4.00173 9.53073 4.30448C9.84776 4.4358 10.1448 4.60661 10.4154 4.81163L8.00003 7.22702L5.58461 4.8116ZM5.39504 4.96451L8.00002 7.56949L7.99999 7.56952L5.39501 4.96453C5.39502 4.96453 5.39503 4.96452 5.39504 4.96451ZM11.0355 5.39505C11.0355 5.39506 11.0355 5.39506 11.0355 5.39507L8.43056 8.00003L11.0355 10.605C11.0355 10.605 11.0355 10.605 11.0355 10.605L8.43051 8.00004L11.0355 5.39505ZM11.1884 10.4154L8.77304 8.00003L11.1884 5.58464C11.236 5.6475 11.2819 5.71188 11.3259 5.77772C11.7654 6.43551 12 7.20887 12 8C12 8.87697 11.712 9.72425 11.1884 10.4154Z" fill="black"/>
</svg>
