<svg width="16" height="16" viewBox="0 0 16 16" fill="none" xmlns="http://www.w3.org/2000/svg">
<path fill-rule="evenodd" clip-rule="evenodd" d="M5.5 6C5.5 5.72386 5.72386 5.5 6 5.5H7.5C7.77614 5.5 8 5.72386 8 6C8 6.27614 7.77614 6.5 7.5 6.5H6C5.72386 6.5 5.5 6.27614 5.5 6ZM10.5 6C10.5 5.72386 10.7239 5.5 11 5.5H12.5C12.7761 5.5 13 5.72386 13 6V10.5001L13.6 9.70003C13.7657 9.47912 14.0791 9.43434 14.3 9.60003C14.5209 9.76572 14.5657 10.0791 14.4 10.3L12.9 12.3C12.8056 12.4259 12.6574 12.5 12.5 12.5C12.3427 12.5 12.1945 12.4259 12.1 12.3L10.6 10.3C10.4343 10.0791 10.4791 9.76571 10.7 9.60003C10.9209 9.43434 11.2343 9.47912 11.4 9.70003L12 10.5V6.5H11C10.7239 6.5 10.5 6.27614 10.5 6Z" fill="black"/>
<path fill-rule="evenodd" clip-rule="evenodd" d="M1.5 4C1.5 3.72386 1.72386 3.5 2 3.5H4.4C4.55189 3.5 4.69555 3.56904 4.79043 3.68765L6.39043 5.68765C6.53652 5.87026 6.53652 6.12974 6.39043 6.31235L4.79043 8.31235C4.69555 8.43095 4.55189 8.5 4.4 8.5H2C1.72386 8.5 1.5 8.27614 1.5 8C1.5 7.72386 1.72386 7.5 2 7.5H4.15969L5.35969 6L4.15969 4.5H2C1.72386 4.5 1.5 4.27614 1.5 4Z" fill="#1C55AE"/>
<path fill-rule="evenodd" clip-rule="evenodd" d="M9.25902 6.96613C9.17641 6.98822 9.08958 7 9 7C8.44772 7 8 6.55228 8 6C8 5.91042 8.01178 5.82359 8.03387 5.74098L9.25902 6.96613ZM9.96613 6.25902L8.74098 5.03387C8.82359 5.01178 8.91042 5 9 5C9.55228 5 10 5.44772 10 6C10 6.08958 9.98822 6.17641 9.96613 6.25902ZM11 6C11 7.10457 10.1046 8 9 8C7.89543 8 7 7.10457 7 6C7 4.89543 7.89543 4 9 4C10.1046 4 11 4.89543 11 6Z" fill="#D20A11"/>
</svg>
