<svg width="16" height="16" viewBox="0 0 16 16" fill="none" xmlns="http://www.w3.org/2000/svg">
<path fill-rule="evenodd" clip-rule="evenodd" d="M12.7273 9.72727C12.7273 9.32561 12.4016 9 12 9C11.5983 9 11.2727 9.32561 11.2727 9.72727V11.2727H9.72727C9.32561 11.2727 9 11.5983 9 12C9 12.4016 9.32561 12.7273 9.72727 12.7273H11.2727V14.2727C11.2727 14.6744 11.5983 15 12 15C12.4016 15 12.7273 14.6744 12.7273 14.2727V12.7273H14.2727C14.6744 12.7273 15 12.4016 15 12C15 11.5983 14.6744 11.2727 14.2727 11.2727H12.7273V9.72727Z" fill="#009646"/>
<path fill-rule="evenodd" clip-rule="evenodd" d="M4 5.6H12C12.7732 5.6 13.4 6.2268 13.4 7V9H15V7C15 5.34315 13.6569 4 12 4H4C2.34315 4 1 5.34315 1 7V9C1 10.6569 2.34315 12 4 12H8V10.4H4C3.2268 10.4 2.6 9.7732 2.6 9V7C2.6 6.2268 3.2268 5.6 4 5.6Z" fill="#1C55AE"/>
</svg>
