<svg width="16" height="16" viewBox="0 0 16 16" fill="none" xmlns="http://www.w3.org/2000/svg">
<path fill-rule="evenodd" clip-rule="evenodd" d="M4 4C2.89543 4 2 4.89543 2 6V11C2 11.0841 2.00519 11.167 2.01527 11.2484C2.00515 11.3315 2 11.4154 2 11.5C2 13.433 4.68629 15 8 15C11.3137 15 14 13.433 14 11.5C14 11.4154 13.9949 11.3315 13.9847 11.2484C13.9948 11.167 14 11.0841 14 11V6C14 4.89543 13.1046 4 12 4H4Z" fill="#E5DDEF"/>
<path fill-rule="evenodd" clip-rule="evenodd" d="M3.02278 11.2473L3.00793 11.3693C3.00267 11.4125 3 11.456 3 11.5C3 11.9632 3.32916 12.5674 4.26123 13.1111C5.16875 13.6405 6.48837 14 8 14C9.51163 14 10.8312 13.6405 11.7388 13.1111C12.6708 12.5674 13 11.9632 13 11.5C13 11.456 12.9973 11.4125 12.9921 11.3693L12.9772 11.2473L12.9923 11.1254C12.9974 11.0847 13 11.0429 13 11V6C13 5.44772 12.5523 5 12 5H4C3.44772 5 3 5.44772 3 6V11C3 11.0429 3.00265 11.0847 3.00769 11.1254L3.02278 11.2473ZM13.7013 4.94803C13.3487 4.37901 12.7186 4 12 4H4C3.28138 4 2.65128 4.37901 2.29869 4.94803L2 4.5V6V11C2 11.0841 2.00519 11.167 2.01527 11.2484C2.00515 11.3315 2 11.4154 2 11.5C2 13.433 4.68629 15 8 15C11.3137 15 14 13.433 14 11.5C14 11.4154 13.9949 11.3315 13.9847 11.2484C13.9948 11.167 14 11.0841 14 11V6V4.5L13.7013 4.94803Z" fill="#333333"/>
<path d="M14 4.5C14 6.433 11.3137 8 8 8C4.68629 8 2 6.433 2 4.5C2 2.567 4.68629 1 8 1C11.3137 1 14 2.567 14 4.5Z" fill="#E5DDEF"/>
<path fill-rule="evenodd" clip-rule="evenodd" d="M11.7388 6.11109C12.6708 5.56739 13 4.96317 13 4.5C13 4.03683 12.6708 3.43261 11.7388 2.88891C10.8312 2.35952 9.51163 2 8 2C6.48837 2 5.16875 2.35952 4.26123 2.88891C3.32916 3.43261 3 4.03683 3 4.5C3 4.96317 3.32916 5.56739 4.26123 6.11109C5.16875 6.64048 6.48837 7 8 7C9.51163 7 10.8312 6.64048 11.7388 6.11109ZM8 8C11.3137 8 14 6.433 14 4.5C14 2.567 11.3137 1 8 1C4.68629 1 2 2.567 2 4.5C2 6.433 4.68629 8 8 8Z" fill="#333333"/>
</svg>
