<svg width="16" height="16" viewBox="0 0 16 16" fill="none" xmlns="http://www.w3.org/2000/svg">
<g clip-path="url(#clip0_161_2211)">
<path fill-rule="evenodd" clip-rule="evenodd" d="M8.02542 0.5896C8.30156 0.5896 8.52542 0.813457 8.52542 1.0896V2.95877L9.10006 2.19258C9.26574 1.97167 9.57915 1.9269 9.80006 2.09258C10.021 2.25827 10.0657 2.57167 9.90006 2.79258L8.40006 4.79258C8.30563 4.91849 8.15744 4.99258 8.00006 4.99258C7.84268 4.99258 7.69449 4.91849 7.60006 4.79258L6.10006 2.79258C5.93437 2.57167 5.97915 2.25827 6.20006 2.09258C6.42097 1.9269 6.73437 1.97167 6.90006 2.19258L7.52542 3.0264V1.0896C7.52542 0.813457 7.74928 0.5896 8.02542 0.5896ZM3.49287 6.92542C3.71378 6.75973 3.75856 6.44633 3.59287 6.22542C3.42719 6.00451 3.11378 5.95973 2.89287 6.12542L0.892871 7.62542C0.766968 7.71985 0.692871 7.86804 0.692871 8.02542C0.692871 8.1828 0.766968 8.33099 0.892871 8.42542L2.89287 9.92542C3.11378 10.0911 3.42719 10.0463 3.59287 9.82542C3.75856 9.60451 3.71378 9.29111 3.49287 9.12542L2.72685 8.5509H4.59585C4.872 8.5509 5.09585 8.32705 5.09585 8.0509C5.09585 7.77476 4.872 7.5509 4.59585 7.5509H2.65889L3.49287 6.92542ZM6.20006 12.143C6.42097 11.9773 6.73437 12.0221 6.90006 12.243L7.49783 13.04V11C7.49783 10.7239 7.72169 10.5 7.99783 10.5C8.27397 10.5 8.49783 10.7239 8.49783 11V13.046L9.10006 12.243C9.26574 12.0221 9.57915 11.9773 9.80006 12.143C10.021 12.3087 10.0657 12.6221 9.90006 12.843L8.40006 14.843C8.30563 14.9689 8.15744 15.043 8.00006 15.043C7.84268 15.043 7.69449 14.9689 7.60006 14.843L6.10006 12.843C5.93437 12.6221 5.97915 12.3087 6.20006 12.143ZM14.8724 6.90003C15.0933 6.73434 15.1381 6.42094 14.9724 6.20003C14.8067 5.97912 14.4933 5.93434 14.2724 6.10003L12.2724 7.60003C12.1465 7.69446 12.0724 7.84265 12.0724 8.00003C12.0724 8.15741 12.1465 8.3056 12.2724 8.40003L14.2724 9.90003C14.4933 10.0657 14.8067 10.0209 14.9724 9.80003C15.1381 9.57912 15.0933 9.26571 14.8724 9.10003L14.1062 8.52539L15.9591 8.52539L15.9591 7.52539L14.0386 7.52539L14.8724 6.90003Z" fill="black"/>
<path fill-rule="evenodd" clip-rule="evenodd" d="M5.50021 5.27295C5.60491 5.10043 5.76343 5 5.93103 5H10.069C10.2366 5 10.3951 5.10043 10.4998 5.27295L11.8791 7.54568C12.0403 7.81129 12.0403 8.18871 11.8791 8.45432L10.4998 10.7271C10.3951 10.8996 10.2366 11 10.069 11H5.93103C5.76343 11 5.60491 10.8996 5.50021 10.7271L4.1209 8.45432C3.9597 8.18871 3.9597 7.81129 4.1209 7.54568L5.50021 5.27295ZM6.19621 6.45455L5.25828 8L6.19621 9.54545H9.80379L10.7417 8L9.80379 6.45455H6.19621Z" fill="#1C55AE"/>
</g>
<defs>
<clipPath id="clip0_161_2211">
<rect width="16" height="16" fill="white"/>
</clipPath>
</defs>
</svg>
