<svg width="16" height="16" viewBox="0 0 16 16" fill="none" xmlns="http://www.w3.org/2000/svg">
<path fill-rule="evenodd" clip-rule="evenodd" d="M12 4C12 2.89543 11.1046 2 10 2L5 2C4.9159 2 4.83301 2.00519 4.75164 2.01527C4.66853 2.00515 4.58462 2 4.5 2C2.567 2 1 4.68629 1 8C1 11.3137 2.567 14 4.5 14C4.58461 14 4.66853 13.9949 4.75164 13.9847C4.83301 13.9948 4.9159 14 5 14L10 14C11.1046 14 12 13.1046 12 12L12 4Z" fill="#E5DDEF"/>
<path fill-rule="evenodd" clip-rule="evenodd" d="M4.75267 3.02278L4.63074 3.00793C4.58752 3.00267 4.54397 3 4.5 3C4.03683 3 3.43261 3.32916 2.88891 4.26123C2.35952 5.16875 2 6.48837 2 8C2 9.51163 2.35952 10.8312 2.88891 11.7388C3.43261 12.6708 4.03683 13 4.5 13C4.54398 13 4.58752 12.9973 4.63074 12.9921L4.75267 12.9772L4.87456 12.9923C4.91525 12.9974 4.95709 13 5 13L10 13C10.5523 13 11 12.5523 11 12L11 4C11 3.44772 10.5523 3 10 3L5 3C4.95709 3 4.91525 3.00265 4.87456 3.00769L4.75267 3.02278ZM11.052 13.7013C11.621 13.3487 12 12.7186 12 12L12 4C12 3.28138 11.621 2.65128 11.052 2.29869L11.5 2L10 2L5 2C4.9159 2 4.83301 2.00519 4.75164 2.01527C4.66853 2.00515 4.58462 2 4.5 2C2.567 2 1 4.68629 1 8C1 11.3137 2.567 14 4.5 14C4.58461 14 4.66853 13.9949 4.75164 13.9847C4.83301 13.9948 4.9159 14 5 14L10 14L11.5 14L11.052 13.7013Z" fill="#333333"/>
<path d="M11.5 14C9.567 14 8 11.3137 8 8C8 4.68629 9.567 2 11.5 2C13.433 2 15 4.68629 15 8C15 11.3137 13.433 14 11.5 14Z" fill="#E5DDEF"/>
<path fill-rule="evenodd" clip-rule="evenodd" d="M9.8889 11.7388C10.4326 12.6708 11.0368 13 11.5 13C11.9632 13 12.5674 12.6708 13.1111 11.7388C13.6405 10.8312 14 9.51163 14 8C14 6.48837 13.6405 5.16875 13.1111 4.26123C12.5674 3.32916 11.9632 3 11.5 3C11.0368 3 10.4326 3.32916 9.8889 4.26123C9.35952 5.16875 9 6.48837 9 8C9 9.51163 9.35952 10.8312 9.8889 11.7388ZM8 8C8 11.3137 9.567 14 11.5 14C13.433 14 15 11.3137 15 8C15 4.68629 13.433 2 11.5 2C9.567 2 8 4.68629 8 8Z" fill="#333333"/>
</svg>
